<?xml version="1.0" encoding="utf-8"?><svg xmlns="http://www.w3.org/2000/svg" xmlns:xlink="http://www.w3.org/1999/xlink"><symbol viewBox="0 0 16 30" id="chevron-left" xmlns="http://www.w3.org/2000/svg"><path d="M.32 15.598L14.474 29.75a.846.846 0 001.2 0 .846.846 0 000-1.2L2.126 15 15.674 1.453a.846.846 0 000-1.2.854.854 0 00-.598-.252.828.828 0 00-.597.251L.327 14.403a.844.844 0 00-.006 1.195z"/></symbol><symbol viewBox="0 0 16 30" id="chevron-right" xmlns="http://www.w3.org/2000/svg"><path d="M15.679 14.402L1.527.25a.846.846 0 00-1.2 0 .846.846 0 000 1.2L13.874 15 .326 28.547a.846.846 0 000 1.2.854.854 0 00.597.252.828.828 0 00.598-.252l14.152-14.152a.844.844 0 00.006-1.194z"/></symbol><symbol viewBox="0 0 12 18" id="mouse" xmlns="http://www.w3.org/2000/svg"><path d="M5.986 0A5.3 5.3 0 00.691 5.295v7.41A5.3 5.3 0 005.986 18a5.3 5.3 0 005.295-5.295v-7.41A5.3 5.3 0 005.986 0zm4.215 12.705a4.22 4.22 0 01-4.215 4.215 4.22 4.22 0 01-4.215-4.215v-7.41A4.22 4.22 0 015.986 1.08a4.22 4.22 0 014.215 4.215v7.41z"/><path d="M5.986 3.58a.54.54 0 00-.54.54v2.486a.54.54 0 001.08 0V4.121a.54.54 0 00-.54-.54z"/></symbol></svg>