<svg width="92" height="478" viewBox="0 0 92 478" fill="none" xmlns="http://www.w3.org/2000/svg"><path d="M87.647 477.354a.5.5 0 00.707 0l3.182-3.182a.501.501 0 00-.708-.708L88 476.293l-2.828-2.829a.5.5 0 00-.707.708l3.181 3.182zM87.5 0v477h1V0h-1zM59.647 426.354a.5.5 0 00.707 0l3.182-3.182a.501.501 0 00-.708-.708L60 425.293l-2.828-2.829a.5.5 0 00-.707.708l3.181 3.182zM59.5 33v393h1V33h-1zM31.646 366.354a.5.5 0 00.708 0l3.181-3.182a.501.501 0 00-.707-.708L32 365.293l-2.828-2.829a.5.5 0 00-.707.708l3.181 3.182zM31.5 87v279h1V87h-1zM3.646 300.354a.5.5 0 00.708 0l3.182-3.182a.501.501 0 00-.708-.708L4 299.293l-2.828-2.829a.5.5 0 00-.708.708l3.182 3.182zM3.5 117v183h1V117h-1z" fill="#F96F35"/></svg>