<svg width="51" height="51" viewBox="0 0 51 51" fill="none" xmlns="http://www.w3.org/2000/svg"><g clip-path="url(#clip0)"><path d="M9.456 3.4a.85.85 0 000 1.7h8.5a.85.85 0 100-1.7h-8.5z" fill="url(#paint0_linear)"/><path d="M38.356 3.4h-17a.85.85 0 000 1.7h17a.85.85 0 100-1.7z" fill="url(#paint1_linear)"/><path d="M20.948 44.2H7.756a2.55 2.55 0 01-2.55-2.55v-34c.734.556 1.63.855 2.55.85h29.75v14.101a.85.85 0 001.7 0V7.65a.85.85 0 00-.85-.85h-30.6a2.55 2.55 0 010-5.1h30.6a.85.85 0 100-1.7h-30.6a4.25 4.25 0 00-4.25 4.25v37.4a4.25 4.25 0 004.25 4.25h13.192a.85.85 0 000-1.7z" fill="url(#paint2_linear)"/><path d="M34.956 25.5a12.638 12.638 0 00-7.65 2.55.85.85 0 101.02 1.36 10.946 10.946 0 016.63-2.21c6.103 0 11.05 4.947 11.05 11.05 0 6.103-4.947 11.05-11.05 11.05-6.102 0-11.05-4.947-11.05-11.05a10.946 10.946 0 012.21-6.605.858.858 0 00-1.36-1.045 12.75 12.75 0 1010.2-5.1z" fill="url(#paint3_linear)"/><path d="M31.76 44.404a.852.852 0 00.646-.204l9.571-9.656a.85.85 0 10-1.198-1.207l-9.019 9.018-3-3.009a.854.854 0 00-1.207 1.207l3.612 3.647a.851.851 0 00.595.204z" fill="url(#paint4_linear)"/><path d="M32.406 19.55v-5.1a.85.85 0 00-.85-.85h-18.7a.85.85 0 00-.85.85v1.7a.85.85 0 001.7 0v-.85h17v3.4h-17.85a.85.85 0 000 1.7h18.7c.47 0 .85-.38.85-.85z" fill="url(#paint5_linear)"/><path d="M12.856 23.8a.85.85 0 000 1.7h13.6a.85.85 0 100-1.7h-13.6z" fill="url(#paint6_linear)"/><path d="M21.356 28.9h-8.5a.85.85 0 000 1.7h8.5a.85.85 0 100-1.7z" fill="url(#paint7_linear)"/><path d="M17.956 35.7a.85.85 0 100-1.7h-5.1a.85.85 0 000 1.7h5.1z" fill="url(#paint8_linear)"/></g><defs><linearGradient id="paint0_linear" x1="18.806" y1="4.25" x2="8.606" y2="4.25" gradientUnits="userSpaceOnUse"><stop stop-color="#2063B1"/><stop offset="1" stop-color="#3CBAFC"/></linearGradient><linearGradient id="paint1_linear" x1="39.206" y1="4.25" x2="20.506" y2="4.25" gradientUnits="userSpaceOnUse"><stop stop-color="#2063B1"/><stop offset="1" stop-color="#3CBAFC"/></linearGradient><linearGradient id="paint2_linear" x1="39.206" y1="22.95" x2="3.506" y2="22.95" gradientUnits="userSpaceOnUse"><stop stop-color="#2063B1"/><stop offset="1" stop-color="#3CBAFC"/></linearGradient><linearGradient id="paint3_linear" x1="47.708" y1="38.25" x2="22.206" y2="38.25" gradientUnits="userSpaceOnUse"><stop stop-color="#2063B1"/><stop offset="1" stop-color="#3CBAFC"/></linearGradient><linearGradient id="paint4_linear" x1="42.228" y1="38.749" x2="27.303" y2="38.749" gradientUnits="userSpaceOnUse"><stop stop-color="#2063B1"/><stop offset="1" stop-color="#3CBAFC"/></linearGradient><linearGradient id="paint5_linear" x1="32.406" y1="17" x2="12.006" y2="17" gradientUnits="userSpaceOnUse"><stop stop-color="#2063B1"/><stop offset="1" stop-color="#3CBAFC"/></linearGradient><linearGradient id="paint6_linear" x1="27.306" y1="24.65" x2="12.006" y2="24.65" gradientUnits="userSpaceOnUse"><stop stop-color="#2063B1"/><stop offset="1" stop-color="#3CBAFC"/></linearGradient><linearGradient id="paint7_linear" x1="22.206" y1="29.75" x2="12.006" y2="29.75" gradientUnits="userSpaceOnUse"><stop stop-color="#2063B1"/><stop offset="1" stop-color="#3CBAFC"/></linearGradient><linearGradient id="paint8_linear" x1="18.806" y1="34.85" x2="12.006" y2="34.85" gradientUnits="userSpaceOnUse"><stop stop-color="#2063B1"/><stop offset="1" stop-color="#3CBAFC"/></linearGradient><clipPath id="clip0"><path fill="#fff" d="M0 0h51v51H0z"/></clipPath></defs></svg>