<svg width="52" height="52" viewBox="0 0 52 52" fill="none" xmlns="http://www.w3.org/2000/svg"><g clip-path="url(#clip0)"><path d="M50.636 40.116L40.11 33.097a3.072 3.072 0 00-4.113.668l-3.066 3.942a1.31 1.31 0 01-1.68.354l-.583-.322c-1.933-1.053-4.339-2.365-9.185-7.213-4.847-4.849-6.162-7.256-7.215-9.186l-.32-.583a1.312 1.312 0 01.346-1.686l3.94-3.065a3.074 3.074 0 00.669-4.114l-7.02-10.525A3.056 3.056 0 007.765.44l-4.4 2.644A6.208 6.208 0 00.531 6.758c-1.585 5.775-.392 15.74 14.289 30.423C26.499 48.86 35.193 52 41.169 52a15.355 15.355 0 004.072-.532 6.203 6.203 0 003.675-2.83l2.646-4.4a3.056 3.056 0 00-.926-4.12zm-.567 3.233l-2.64 4.4a4.478 4.478 0 01-2.644 2.05c-5.33 1.463-14.644.25-28.738-13.844C1.952 21.861.74 12.548 2.204 7.216a4.485 4.485 0 012.05-2.646l4.402-2.64a1.326 1.326 0 011.788.402l3.813 5.724 3.2 4.8c.383.58.257 1.356-.29 1.785l-3.94 3.065a3.033 3.033 0 00-.803 3.892l.313.569c1.107 2.03 2.484 4.558 7.51 9.584 5.028 5.026 7.554 6.403 9.584 7.51l.57.314a3.033 3.033 0 003.892-.804l3.065-3.94a1.334 1.334 0 011.785-.29l10.524 7.02c.59.392.768 1.18.402 1.788z" fill="url(#paint0_linear)"/><path d="M29.465 8.671c8.132.009 14.722 6.6 14.731 14.731a.866.866 0 101.733 0c-.01-9.089-7.375-16.454-16.464-16.464a.866.866 0 100 1.733z" fill="url(#paint1_linear)"/><path d="M29.465 13.87a9.543 9.543 0 019.532 9.532.867.867 0 001.733 0c-.007-6.218-5.046-11.258-11.265-11.265a.866.866 0 100 1.733z" fill="url(#paint2_linear)"/><path d="M29.465 19.07a4.338 4.338 0 014.333 4.332.867.867 0 001.733 0 6.073 6.073 0 00-6.066-6.066.866.866 0 100 1.733z" fill="url(#paint3_linear)"/></g><defs><linearGradient id="paint0_linear" x1="52" y1="26.001" x2="0" y2="26.001" gradientUnits="userSpaceOnUse"><stop stop-color="#2063B1"/><stop offset="1" stop-color="#3CBAFC"/></linearGradient><linearGradient id="paint1_linear" x1="45.929" y1="15.603" x2="28.599" y2="15.603" gradientUnits="userSpaceOnUse"><stop stop-color="#2063B1"/><stop offset="1" stop-color="#3CBAFC"/></linearGradient><linearGradient id="paint2_linear" x1="40.73" y1="18.203" x2="28.599" y2="18.203" gradientUnits="userSpaceOnUse"><stop stop-color="#2063B1"/><stop offset="1" stop-color="#3CBAFC"/></linearGradient><linearGradient id="paint3_linear" x1="35.531" y1="20.802" x2="28.599" y2="20.802" gradientUnits="userSpaceOnUse"><stop stop-color="#2063B1"/><stop offset="1" stop-color="#3CBAFC"/></linearGradient><clipPath id="clip0"><path fill="#fff" d="M0 0h52v52H0z"/></clipPath></defs></svg>