<svg width="52" height="52" viewBox="0 0 52 52" fill="none" xmlns="http://www.w3.org/2000/svg"><path d="M51.904 12.33a2.6 2.6 0 00-1.213-1.576 2.6 2.6 0 00-3.553.953l-.433.754a.867.867 0 00-1.178.312l-2.201 3.752-.754-.434a.868.868 0 00-1.187.321.867.867 0 00.32 1.178l.754.434-7.365 12.764-1.82 4.861-.866 1.62a2.6 2.6 0 00.138 2.808l-1.95 2.391-.545-1.369a1.732 1.732 0 00-3.094-.242l-.312.528-.294-3.466a1.734 1.734 0 00-3.371-.407l-2.132 6.395a.866.866 0 00.546 1.092c.085.04.176.063.269.069a.867.867 0 00.823-.59l2.123-6.394.303 3.518a1.733 1.733 0 003.215.745l.32-.529.538 1.361a1.733 1.733 0 002.964.442l2.019-2.556c.223.058.453.087.684.086a2.6 2.6 0 002.262-1.282l.866-1.447 3.302-4.012 7.443-12.92.754.433a.866.866 0 01.32 1.187l-3.465 6.005a.865.865 0 00.277 1.222.866.866 0 001.187-.32l3.466-6.005a2.598 2.598 0 00-.953-3.553l-.754-.434 2.166-3.752a.867.867 0 00-.312-1.178l.434-.754a2.599 2.599 0 00.26-2.01zm-3.267.243a.867.867 0 01.53-.407.91.91 0 01.658.087.867.867 0 01.407.528.91.91 0 01-.087.659l-.433.754-1.508-.867.434-.754zm-11.81 24.194l-.433-.252-1.283-.745 1.23-3.293 2.73 1.577-2.244 2.713zm-2.6 2.504a.866.866 0 01-.26-1.135l.434-.754 1.507.867-.433.745a.866.866 0 01-1.248.277zm5.832-6.638L37.061 30.9l6.932-12.01 2.998 1.733-6.932 12.01zm7.799-13.509l-2.998-1.733 1.733-2.998 2.998 1.733-1.733 2.998z" fill="url(#paint0_linear)"/><path d="M13.674 38.837l-3.067 3.06-1.838-1.838a.867.867 0 10-1.222 1.23l1.838 1.838a1.73 1.73 0 001.222.502c.46.003.903-.178 1.23-.502l3.059-3.068a.867.867 0 00-1.223-1.222z" fill="url(#paint1_linear)"/><path d="M3.466 41.168a7.365 7.365 0 1014.73 0 .867.867 0 00-1.732 0 5.632 5.632 0 11-5.633-5.632 5.584 5.584 0 013.38 1.127.866.866 0 101.04-1.387 7.366 7.366 0 00-11.785 5.892z" fill="url(#paint2_linear)"/><path d="M31.195 6.94a.866.866 0 100-1.732H8.665a.867.867 0 00-.866.866V9.54c0 .48.388.867.866.867h22.53a.866.866 0 100-1.733H9.532V6.94h21.663z" fill="url(#paint3_linear)"/><path d="M11.265 12.14a.867.867 0 000 1.733h17.33a.866.866 0 100-1.733h-17.33z" fill="url(#paint4_linear)"/><path d="M33.794 18.206H14.731a.867.867 0 000 1.733h19.063a.866.866 0 100-1.733z" fill="url(#paint5_linear)"/><path d="M25.129 24.271a.867.867 0 00-.867-.866H6.932a.867.867 0 000 1.733h17.33a.866.866 0 00.867-.867z" fill="url(#paint6_linear)"/><path d="M33.794 23.405H27.73a.867.867 0 000 1.733h6.066a.866.866 0 100-1.733z" fill="url(#paint7_linear)"/><path d="M15.597 29.47a.866.866 0 100-1.733H6.932a.867.867 0 000 1.733h8.665z" fill="url(#paint8_linear)"/><path d="M19.063 29.47h6.066a.866.866 0 100-1.733h-6.066a.867.867 0 000 1.733z" fill="url(#paint9_linear)"/><path d="M38.993 39.868a.867.867 0 00-.866.866V49.4a.866.866 0 01-.867.867H2.6a.866.866 0 01-.867-.867V2.607c0-.478.388-.866.867-.866h34.66c.479 0 .867.388.867.866v16.274a.867.867 0 001.733 0V2.607a2.6 2.6 0 00-2.6-2.6H2.6a2.6 2.6 0 00-2.6 2.6V49.4A2.6 2.6 0 002.6 52h34.66a2.6 2.6 0 002.6-2.6v-8.665a.867.867 0 00-.867-.866z" fill="url(#paint10_linear)"/><defs><linearGradient id="paint0_linear" x1="52" y1="27.736" x2="20.805" y2="27.736" gradientUnits="userSpaceOnUse"><stop stop-color="#2063B1"/><stop offset="1" stop-color="#3CBAFC"/></linearGradient><linearGradient id="paint1_linear" x1="15.104" y1="41.129" x2="7.291" y2="41.129" gradientUnits="userSpaceOnUse"><stop stop-color="#2063B1"/><stop offset="1" stop-color="#3CBAFC"/></linearGradient><linearGradient id="paint2_linear" x1="18.197" y1="41.169" x2="3.466" y2="41.169" gradientUnits="userSpaceOnUse"><stop stop-color="#2063B1"/><stop offset="1" stop-color="#3CBAFC"/></linearGradient><linearGradient id="paint3_linear" x1="32.061" y1="7.807" x2="7.799" y2="7.807" gradientUnits="userSpaceOnUse"><stop stop-color="#2063B1"/><stop offset="1" stop-color="#3CBAFC"/></linearGradient><linearGradient id="paint4_linear" x1="29.462" y1="13.006" x2="10.398" y2="13.006" gradientUnits="userSpaceOnUse"><stop stop-color="#2063B1"/><stop offset="1" stop-color="#3CBAFC"/></linearGradient><linearGradient id="paint5_linear" x1="34.661" y1="19.072" x2="13.864" y2="19.072" gradientUnits="userSpaceOnUse"><stop stop-color="#2063B1"/><stop offset="1" stop-color="#3CBAFC"/></linearGradient><linearGradient id="paint6_linear" x1="25.129" y1="24.271" x2="6.065" y2="24.271" gradientUnits="userSpaceOnUse"><stop stop-color="#2063B1"/><stop offset="1" stop-color="#3CBAFC"/></linearGradient><linearGradient id="paint7_linear" x1="34.661" y1="24.271" x2="26.862" y2="24.271" gradientUnits="userSpaceOnUse"><stop stop-color="#2063B1"/><stop offset="1" stop-color="#3CBAFC"/></linearGradient><linearGradient id="paint8_linear" x1="16.464" y1="28.604" x2="6.065" y2="28.604" gradientUnits="userSpaceOnUse"><stop stop-color="#2063B1"/><stop offset="1" stop-color="#3CBAFC"/></linearGradient><linearGradient id="paint9_linear" x1="25.995" y1="28.604" x2="18.197" y2="28.604" gradientUnits="userSpaceOnUse"><stop stop-color="#2063B1"/><stop offset="1" stop-color="#3CBAFC"/></linearGradient><linearGradient id="paint10_linear" x1="39.86" y1="26.003" x2="0" y2="26.003" gradientUnits="userSpaceOnUse"><stop stop-color="#2063B1"/><stop offset="1" stop-color="#3CBAFC"/></linearGradient></defs></svg>