<svg width="52" height="52" viewBox="0 0 52 52" fill="none" xmlns="http://www.w3.org/2000/svg"><path d="M50.477 21.43h-5.565l-2.6-2.601a1.523 1.523 0 00-1.078-.446h-6.093c-.842 0-1.524.682-1.524 1.523v15.235c0 4.2-3.417 7.617-7.617 7.617s-7.617-3.417-7.617-7.617V19.906c0-.841-.682-1.523-1.524-1.523h-6.093c-.404 0-.792.16-1.078.446l-2.6 2.6H1.523c-.84 0-1.523.683-1.523 1.524v27.524C0 51.317.682 52 1.523 52h48.954c.84 0 1.523-.682 1.523-1.523V22.953c0-.841-.682-1.523-1.523-1.523zm-1.524 9.14h-1.625a1.523 1.523 0 000 3.047h1.625v9.14h-1.625a1.523 1.523 0 000 3.048h1.625v3.148H3.047v-3.148h1.625a1.523 1.523 0 000-3.047H3.047v-9.14h1.625a1.523 1.523 0 000-3.048H3.047v-6.093h4.672c.404 0 .791-.16 1.077-.447l2.6-2.6h3.94v6.093h-1.524a1.523 1.523 0 000 3.047h1.524v4.57c0 5.88 4.784 10.665 10.664 10.665S36.664 41.02 36.664 35.14v-4.57h1.523a1.523 1.523 0 000-3.048h-1.523V21.43h3.94l2.6 2.6c.286.286.673.447 1.077.447h4.672v6.093z" fill="url(#paint0_linear)"/><path d="M32.093 0H19.907c-1.216 0-1.94 1.359-1.268 2.369l2.791 4.186v4.21a4.578 4.578 0 003.047 4.309v5.414l-2.204 1.103a1.523 1.523 0 101.362 2.725l.842-.421v2.687l-2.204 1.102a1.523 1.523 0 101.362 2.726l.843-.422v2.688l-2.205 1.102a1.523 1.523 0 101.363 2.725l.842-.42v2.105a1.523 1.523 0 003.046 0v-3.63l2.205-1.102a1.523 1.523 0 10-1.362-2.725l-.843.421v-2.687l2.205-1.102a1.523 1.523 0 00-1.363-2.726l-.842.421v-2.687l2.205-1.102a1.523 1.523 0 10-1.363-2.725l-.842.42v-3.89a4.577 4.577 0 003.047-4.309v-4.21l2.791-4.186C34.035 1.357 33.307 0 32.094 0zM27.78 5.249a1.52 1.52 0 00-.256.845v4.672a1.524 1.524 0 01-3.047 0V6.094c0-.301-.089-.595-.255-.845l-1.468-2.202h6.494L27.78 5.249z" fill="url(#paint1_linear)"/><path d="M44.281 36.664h-3.047a1.523 1.523 0 100 3.047h3.047a1.523 1.523 0 100-3.047z" fill="url(#paint2_linear)"/><path d="M10.766 36.664H7.719a1.523 1.523 0 000 3.047h3.047a1.523 1.523 0 100-3.047z" fill="url(#paint3_linear)"/><defs><linearGradient id="paint0_linear" x1="52" y1="35.191" x2="0" y2="35.191" gradientUnits="userSpaceOnUse"><stop stop-color="#2063B1"/><stop offset="1" stop-color="#3CBAFC"/></linearGradient><linearGradient id="paint1_linear" x1="33.619" y1="19.855" x2="18.381" y2="19.855" gradientUnits="userSpaceOnUse"><stop stop-color="#2063B1"/><stop offset="1" stop-color="#3CBAFC"/></linearGradient><linearGradient id="paint2_linear" x1="45.805" y1="38.188" x2="39.711" y2="38.188" gradientUnits="userSpaceOnUse"><stop stop-color="#2063B1"/><stop offset="1" stop-color="#3CBAFC"/></linearGradient><linearGradient id="paint3_linear" x1="12.289" y1="38.188" x2="6.195" y2="38.188" gradientUnits="userSpaceOnUse"><stop stop-color="#2063B1"/><stop offset="1" stop-color="#3CBAFC"/></linearGradient></defs></svg>