<svg width="36" height="36" viewBox="0 0 36 36" fill="none" xmlns="http://www.w3.org/2000/svg"><g clip-path="url(#clip0)"><path d="M36 2.323V1.16h-7.548V.58A.58.58 0 0027.87 0h-3.484a.58.58 0 00-.58.58v.581H18.58a2.907 2.907 0 00-2.904 2.904v2.903h-.58a.58.58 0 00-.58.58v2.323c0 .32.258.58.58.58h5.806a.58.58 0 00.58-.58V7.548a.58.58 0 00-.58-.58h-.58V5.806h3.483v.581c0 .32.26.58.581.58h3.484a.58.58 0 00.58-.58v-.58H36V4.644h-4.064V2.323H36zM20.323 9.29h-4.646V8.13h4.646v1.16zm-.581-4.645a.58.58 0 00-.58.58v1.743h-2.323V4.065c0-.96.781-1.742 1.742-1.742h1.742v2.322h-.581zm1.742 0V2.323h2.322v2.322h-2.322zm5.806 1.161h-2.322V1.161h2.322v4.645zm3.484-1.16h-2.322V2.322h2.322v2.322z" fill="url(#paint0_linear)"/><path d="M26.71 11.613H9.29a.58.58 0 00-.58.58v2.323c0 .32.26.58.58.58h.612l1.131 20.356a.58.58 0 00.58.548h12.774a.58.58 0 00.58-.548l1.13-20.355h.613a.58.58 0 00.58-.581v-2.323a.58.58 0 00-.58-.58zm-2.872 23.226H12.162l-1.097-19.742h2.29v18c0 .32.26.58.58.58h8.13a.58.58 0 00.58-.58v-18h2.29l-1.097 19.742zm-9.322-3.484h6.968v1.161h-6.968v-1.161zm6.968-15.097H18v1.161h3.484v1.162H19.16v1.16h2.323v1.162H18v1.161h3.484v1.162H19.16v1.161h2.323v1.161H18v1.162h3.484v1.16H19.16v1.162h2.323v1.161h-6.968V15.097h6.968v1.161zm4.645-2.323H9.871v-1.16h16.258v1.16z" fill="url(#paint1_linear)"/><path d="M31.936 26.71v1.16c.96 0 1.742-.78 1.742-1.741h-1.162c0 .32-.26.58-.58.58z" fill="url(#paint2_linear)"/><path d="M32.433 18.862c-.21-.35-.786-.35-.996 0l-2.886 4.811a4.775 4.775 0 00-.68 2.456 4.07 4.07 0 004.064 4.065A4.07 4.07 0 0036 26.129c0-.865-.235-1.715-.68-2.456l-2.887-4.81zm-.498 10.17a2.907 2.907 0 01-2.903-2.903c0-.654.178-1.297.515-1.858l2.388-3.981 2.388 3.98c.337.562.516 1.205.516 1.86 0 1.6-1.303 2.902-2.904 2.902z" fill="url(#paint3_linear)"/><path d="M33.58 9.549c-.215-.324-.75-.324-.966 0l-1.679 2.517a4.4 4.4 0 00-.741 2.45c0 1.6 1.302 2.903 2.903 2.903 1.6 0 2.903-1.302 2.903-2.903 0-.875-.256-1.722-.741-2.45l-1.68-2.517zm-.483 6.709c-.96 0-1.742-.782-1.742-1.742 0-.645.189-1.27.546-1.805l1.196-1.793 1.195 1.793c.358.536.547 1.16.547 1.805 0 .96-.782 1.742-1.742 1.742z" fill="url(#paint4_linear)"/><path d="M4.064 19.161v1.162c.96 0 1.742-.782 1.742-1.742h-1.16c0 .32-.261.58-.582.58z" fill="url(#paint5_linear)"/><path d="M4.562 11.314c-.21-.35-.786-.35-.996 0L.68 16.124A4.775 4.775 0 000 18.582a4.07 4.07 0 004.065 4.064 4.07 4.07 0 004.064-4.064 4.77 4.77 0 00-.68-2.456l-2.887-4.811zm-.497 10.17a2.907 2.907 0 01-2.904-2.903c0-.655.179-1.297.515-1.858l2.389-3.981 2.388 3.98c.336.562.515 1.204.515 1.859 0 1.6-1.303 2.903-2.903 2.903z" fill="url(#paint6_linear)"/><path d="M5.709.259c-.216-.324-.75-.324-.966 0l-1.68 2.517a4.4 4.4 0 00-.74 2.45c0 1.6 1.302 2.903 2.903 2.903 1.6 0 2.903-1.302 2.903-2.903a4.4 4.4 0 00-.741-2.45L5.708.26zm-.483 6.709c-.96 0-1.742-.782-1.742-1.742 0-.645.189-1.27.546-1.805l1.196-1.793L6.42 3.42c.358.536.547 1.16.547 1.805 0 .96-.782 1.742-1.742 1.742z" fill="url(#paint7_linear)"/></g><defs><linearGradient id="paint0_linear" x1="36" y1="5.226" x2="14.516" y2="5.226" gradientUnits="userSpaceOnUse"><stop stop-color="#2063B1"/><stop offset="1" stop-color="#3CBAFC"/></linearGradient><linearGradient id="paint1_linear" x1="27.29" y1="23.806" x2="8.71" y2="23.806" gradientUnits="userSpaceOnUse"><stop stop-color="#2063B1"/><stop offset="1" stop-color="#3CBAFC"/></linearGradient><linearGradient id="paint2_linear" x1="33.678" y1="27" x2="31.936" y2="27" gradientUnits="userSpaceOnUse"><stop stop-color="#2063B1"/><stop offset="1" stop-color="#3CBAFC"/></linearGradient><linearGradient id="paint3_linear" x1="36" y1="24.397" x2="27.871" y2="24.397" gradientUnits="userSpaceOnUse"><stop stop-color="#2063B1"/><stop offset="1" stop-color="#3CBAFC"/></linearGradient><linearGradient id="paint4_linear" x1="36" y1="13.363" x2="30.194" y2="13.363" gradientUnits="userSpaceOnUse"><stop stop-color="#2063B1"/><stop offset="1" stop-color="#3CBAFC"/></linearGradient><linearGradient id="paint5_linear" x1="5.806" y1="19.451" x2="4.064" y2="19.451" gradientUnits="userSpaceOnUse"><stop stop-color="#2063B1"/><stop offset="1" stop-color="#3CBAFC"/></linearGradient><linearGradient id="paint6_linear" x1="8.129" y1="16.848" x2="0" y2="16.848" gradientUnits="userSpaceOnUse"><stop stop-color="#2063B1"/><stop offset="1" stop-color="#3CBAFC"/></linearGradient><linearGradient id="paint7_linear" x1="8.129" y1="4.073" x2="2.323" y2="4.073" gradientUnits="userSpaceOnUse"><stop stop-color="#2063B1"/><stop offset="1" stop-color="#3CBAFC"/></linearGradient><clipPath id="clip0"><path fill="#fff" d="M0 0h36v36H0z"/></clipPath></defs></svg>