<svg width="36" height="36" viewBox="0 0 36 36" fill="none" xmlns="http://www.w3.org/2000/svg"><path d="M30.615 31.19l-7.613-18.556a8.468 8.468 0 01-.636-3.228V4.501c0-.528.206-1.024.58-1.398a2.396 2.396 0 00.706-1.705V.703A.703.703 0 0022.949 0H13.13a.703.703 0 00-.703.703v.695c0 .644.251 1.25.706 1.705.374.374.58.87.58 1.399v4.904a8.462 8.462 0 01-.637 3.228l-2.091 5.099-.003.006-5.518 13.45a3.48 3.48 0 00.33 3.266A3.48 3.48 0 008.69 36h18.698a3.481 3.481 0 002.896-1.545 3.482 3.482 0 00.33-3.265zM14.378 13.168a9.86 9.86 0 00.742-3.762V4.501c0-.903-.352-1.753-.99-2.392a1 1 0 01-.295-.703h8.41a.999.999 0 01-.294.703A3.362 3.362 0 0020.96 4.5v4.905c0 1.297.25 2.562.741 3.762l1.698 4.138H12.681l1.697-4.138zm14.74 20.504a2.05 2.05 0 01-1.729.922H8.691a2.05 2.05 0 01-1.728-.922 2.047 2.047 0 01-.333-1.46h1.16a.703.703 0 000-1.406h-.646l.807-1.969h1.186a.703.703 0 000-1.406h-.609l.808-1.969h1.22a.703.703 0 000-1.406h-.643l.807-1.969h1.253a.703.703 0 000-1.406h-.676l.808-1.969h11.872l5.338 13.012a2.05 2.05 0 01-.197 1.948z" fill="url(#paint0_linear)"/><path d="M27.143 31.234a.703.703 0 00-1.302.532l.004.01a.703.703 0 001.302-.533l-.004-.01z" fill="url(#paint1_linear)"/><path d="M26.15 28.811l-2.519-6.137a.703.703 0 10-1.3.534l2.517 6.137a.703.703 0 101.301-.534z" fill="url(#paint2_linear)"/><defs><linearGradient id="paint0_linear" x1="30.877" y1="18" x2="5.203" y2="18" gradientUnits="userSpaceOnUse"><stop stop-color="#2063B1"/><stop offset="1" stop-color="#3CBAFC"/></linearGradient><linearGradient id="paint1_linear" x1="27.199" y1="31.505" x2="25.789" y2="31.505" gradientUnits="userSpaceOnUse"><stop stop-color="#2063B1"/><stop offset="1" stop-color="#3CBAFC"/></linearGradient><linearGradient id="paint2_linear" x1="26.202" y1="26.009" x2="22.277" y2="26.009" gradientUnits="userSpaceOnUse"><stop stop-color="#2063B1"/><stop offset="1" stop-color="#3CBAFC"/></linearGradient></defs></svg>