<svg width="36" height="36" viewBox="0 0 36 36" fill="none" xmlns="http://www.w3.org/2000/svg"><g clip-path="url(#clip0)"><path d="M17.88 35.206a9.207 9.207 0 01-3.668-.758l-5.55-2.413a21.05 21.05 0 00-6.311-1.644l-1.823-.182A.586.586 0 010 29.625v-5.718c0-.126.041-.25.117-.351.137-.183 3.404-4.45 8.394-3.34 2.806.624 5.066 1.791 6.467 2.66a6.53 6.53 0 003.45.965h5.55c.956 0 1.797.506 2.268 1.265l4.78-5.507c.927-1.238 2.443-1.996 4.03-1.996h.357a.586.586 0 01.538.823l-4.324 9.826a7.703 7.703 0 01-5.148 4.342l-.76.19-4.426 1.77a9.203 9.203 0 01-3.413.652zM1.174 29.094l1.294.13c2.3.23 4.542.814 6.662 1.736l5.55 2.413a8.071 8.071 0 006.178.09l4.461-1.784a.593.593 0 01.076-.024l.8-.2a6.52 6.52 0 004.358-3.676l3.943-8.962a3.921 3.921 0 00-2.557 1.518l-5.296 6.103.001.069a2.669 2.669 0 01-2.666 2.666h-7.744a9.337 9.337 0 00-2.957.48l-.215-.548-.182-.558.03-.01A10.5 10.5 0 0116.234 28h7.744c.823 0 1.493-.67 1.493-1.493 0-.823-.67-1.492-1.493-1.492h-5.55a7.702 7.702 0 01-4.068-1.141c-1.323-.821-3.458-1.923-6.103-2.512-3.78-.838-6.498 2.062-7.083 2.754v4.979z" fill="url(#paint0_linear)"/><path d="M23.104 17.47c-.902 0-1.914-.278-3.028-.835a.59.59 0 01-.29-.327c-.045-.127-1.093-3.143.573-5.373 1.21-1.62 3.487-2.35 6.77-2.168.3.017.538.257.553.557.012.233.254 5.731-2.55 7.562a3.626 3.626 0 01-2.028.585zm-2.28-1.776c1.542.722 2.774.793 3.666.21 1.663-1.086 2.023-4.31 2.031-5.987-2.572-.063-4.323.517-5.222 1.72-1.07 1.433-.655 3.404-.474 4.056z" fill="url(#paint1_linear)"/><path d="M14.133 9.784c-1.04 0-2.24-.223-3.288-.99-1.776-1.301-2.593-3.78-2.427-7.365A.587.587 0 018.969.87c.254-.014 6.26-.335 8.282 2.699.941 1.412.864 3.262-.229 5.498a.586.586 0 01-.324.293c-.08.03-1.18.424-2.566.424zm2.362-.974h.006-.006zM9.573 2.024c-.051 2.872.61 4.83 1.965 5.824 1.623 1.189 3.84.683 4.537.48.797-1.73.864-3.111.2-4.109-1.235-1.854-4.858-2.216-6.702-2.195z" fill="url(#paint2_linear)"/><path d="M18.714 24.807a.587.587 0 01-.586-.616c.035-.69.093-1.345.174-1.965.244-4.151.118-13.82-5.995-16.494a.587.587 0 01.47-1.075c3.603 1.576 5.869 5.5 6.553 11.347.061.524.107 1.04.141 1.543 1.61-4.068 4.073-5.505 4.22-5.587a.587.587 0 01.576 1.021c-.062.037-3.838 2.303-4.786 9.292a28.157 28.157 0 01-.186 2.028.586.586 0 01-.58.506z" fill="url(#paint3_linear)"/></g><defs><linearGradient id="paint0_linear" x1="36" y1="26.405" x2="0" y2="26.405" gradientUnits="userSpaceOnUse"><stop stop-color="#2063B1"/><stop offset="1" stop-color="#3CBAFC"/></linearGradient><linearGradient id="paint1_linear" x1="27.692" y1="13.105" x2="19.419" y2="13.105" gradientUnits="userSpaceOnUse"><stop stop-color="#2063B1"/><stop offset="1" stop-color="#3CBAFC"/></linearGradient><linearGradient id="paint2_linear" x1="17.904" y1="5.319" x2="8.397" y2="5.319" gradientUnits="userSpaceOnUse"><stop stop-color="#2063B1"/><stop offset="1" stop-color="#3CBAFC"/></linearGradient><linearGradient id="paint3_linear" x1="24.565" y1="14.708" x2="11.956" y2="14.708" gradientUnits="userSpaceOnUse"><stop stop-color="#2063B1"/><stop offset="1" stop-color="#3CBAFC"/></linearGradient><clipPath id="clip0"><path fill="#fff" d="M0 0h36v36H0z"/></clipPath></defs></svg>