<svg width="122" height="46" viewBox="0 0 122 46" fill="none" xmlns="http://www.w3.org/2000/svg"><path d="M.218 1.19h9.96l3.54 24.43L18.96 1.19h9.895l5.243 24.346 3.538-24.347h9.83L40.061 44.81H29.838L23.94 17.42l-5.898 27.39H7.755L.218 1.19z" fill="#236BB8"/><path d="M41.568 30.355l9.961-.761c.197 2.113.655 3.635 1.31 4.734 1.05 1.775 2.622 2.62 4.588 2.62 1.507 0 2.621-.422 3.473-1.352.787-.93 1.18-1.944 1.18-3.128 0-1.099-.393-2.113-1.18-3.043-.786-.93-2.556-1.776-5.373-2.536-4.588-1.353-7.864-3.128-9.765-5.326-1.966-2.198-2.949-4.988-2.949-8.37 0-2.197.525-4.395 1.508-6.34.983-2.029 2.49-3.55 4.521-4.734C50.874 1.02 53.626.43 57.165.43c4.325 0 7.602 1.014 9.895 3.127 2.294 2.03 3.605 5.326 4.063 9.891l-9.83.761c-.262-1.944-.786-3.381-1.638-4.311-.852-.93-1.966-1.353-3.473-1.353-1.245 0-2.097.338-2.752 1.015-.59.676-.918 1.437-.918 2.451 0 .676.262 1.353.787 1.86.524.592 1.638 1.099 3.473 1.606 4.587 1.268 7.798 2.536 9.83 3.889 1.965 1.268 3.407 2.874 4.325 4.818.917 1.945 1.376 4.058 1.376 6.425 0 2.79-.59 5.41-1.77 7.693-1.18 2.367-2.883 4.142-5.046 5.326-2.162 1.183-4.849 1.86-8.125 1.86-5.767 0-9.7-1.438-11.927-4.312-2.228-2.874-3.605-6.424-3.867-10.82z" fill="#236BB8"/><path d="M69 1.714h17.366c3.8 0 6.619 1.184 8.52 3.466 1.9 2.283 2.817 5.58 2.817 9.891 0 4.396-1.049 7.862-3.08 10.314-2.032 2.451-5.177 3.72-9.371 3.72H79.55V45.25H69.065V1.714H69zm10.42 18.598h2.555c2.032 0 3.408-.422 4.26-1.352.786-.93 1.245-2.03 1.245-3.466 0-1.353-.328-2.536-1.049-3.466-.72-.93-2.031-1.437-3.997-1.437h-2.949v9.721h-.065zm11.363 20.442v-1.86h3.67v4.311c-.328.423-.852.846-1.573 1.184-.72.338-1.376.507-2.031.507a4.219 4.219 0 01-2.294-.676c-.655-.423-1.18-1.184-1.507-2.03a8.127 8.127 0 01-.525-2.873 9.1 9.1 0 01.525-3.044c.327-.93.917-1.522 1.638-2.029.524-.338 1.245-.507 2.031-.507 1.049 0 1.835.254 2.425.845.59.592.983 1.353 1.114 2.367l-1.704.423c-.13-.507-.327-.93-.655-1.268-.328-.338-.72-.423-1.245-.423-.72 0-1.31.339-1.77.93-.458.592-.655 1.522-.655 2.706 0 1.267.197 2.282.656 2.874.458.591 1.048.93 1.769.93.328 0 .72-.085 1.049-.254.327-.17.655-.423.917-.676v-1.353h-1.835v-.084z" fill="#236BB8"/><path d="M94.125 44.81V33.905h3.604c.918 0 1.573.085 1.966.254.393.169.721.507.983 1.014s.393 1.1.393 1.69c0 .846-.196 1.523-.589 2.03-.394.507-.918.845-1.639 1.014.394.254.656.592.918.93.262.338.59.93.983 1.775l1.048 2.114h-2.031l-1.245-2.367c-.46-.846-.721-1.353-.918-1.606-.196-.254-.328-.339-.524-.423-.197-.085-.459-.085-.852-.085h-.328v4.565h-1.769zm1.704-6.34h1.245c.786 0 1.31-.084 1.507-.169.197-.084.393-.254.459-.423.065-.169.197-.507.197-.845 0-.338-.066-.676-.197-.93s-.393-.338-.655-.423h-2.556v2.79z" fill="#236BB8"/><path d="M100.416 39.4c0-1.099.131-2.029.393-2.79.197-.591.459-1.014.787-1.521.327-.508.72-.761 1.114-1.015a4.1 4.1 0 011.835-.422c1.245 0 2.228.507 3.014 1.521.786 1.015 1.114 2.367 1.114 4.142 0 1.776-.393 3.128-1.114 4.143-.721 1.014-1.704 1.522-2.949 1.522-1.245 0-2.228-.508-3.014-1.522-.787-1.015-1.18-2.367-1.18-4.058zm1.769-.084c0 1.268.197 2.197.656 2.79.458.591.983.93 1.704.93.72 0 1.245-.339 1.703-.93.459-.593.656-1.607.656-2.875s-.197-2.198-.656-2.79c-.458-.592-.983-.93-1.703-.93-.721 0-1.246.338-1.704.93-.459.592-.656 1.606-.656 2.874z" fill="#236BB8"/><path d="M108.018 33.905h1.704v5.918c0 .93 0 1.521.065 1.86.066.422.262.845.524 1.099a1.6 1.6 0 001.114.422 1.6 1.6 0 001.115-.422c.262-.254.393-.592.458-.93.066-.338.066-1.015.066-1.86V33.99h1.704v5.748c0 1.268-.066 2.198-.131 2.79-.066.592-.263 1.014-.525 1.352a4.04 4.04 0 01-.983.93c-.393.254-.983.338-1.638.338-.786 0-1.442-.084-1.835-.338a4.058 4.058 0 01-.983-.93c-.262-.338-.393-.76-.459-1.183-.131-.592-.196-1.522-.196-2.79v-6.002z" fill="#236BB8"/><path d="M114.702 44.81V33.905h2.752c1.049 0 1.704.085 2.032.17.459.168.917.506 1.245 1.098.328.592.459 1.268.459 2.114 0 .676-.066 1.268-.262 1.69-.197.423-.459.846-.721 1.1-.262.253-.59.422-.852.507a8.496 8.496 0 01-1.769.169h-1.114v4.142h-1.77v-.085zm1.704-9.045v3.128h.917c.656 0 1.114-.085 1.377-.17.262-.084.393-.253.524-.506a1.74 1.74 0 00.196-.846c0-.422-.065-.76-.262-1.014-.196-.254-.393-.423-.655-.508-.197-.084-.59-.084-1.245-.084h-.852z" fill="#236BB8"/></svg>