<svg width="36" height="36" viewBox="0 0 36 36" fill="none" xmlns="http://www.w3.org/2000/svg"><path d="M34.313 7.313h-1.688V6.188h.563c.31 0 .562-.252.562-.563v-2.25a.563.563 0 00-.563-.563h-.562V1.125a.563.563 0 00-.563-.563h-5.624a.563.563 0 00-.563.563v1.688h-.563a.563.563 0 00-.562.562v2.25c0 .31.252.563.563.563h.562v1.125h-1.688a.563.563 0 00-.562.562v2.25c0 .31.252.563.563.563h1.687v6.75c0 1.24-1.01 2.25-2.25 2.25s-2.25-1.01-2.25-2.25V9.563c0-4.963-4.038-9-9-9s-9 4.037-9 9v6.75H1.687a.563.563 0 00-.562.562v2.25c0 .31.252.563.563.563h1.687v1.125h-.563a.563.563 0 00-.562.562v2.25c0 .31.252.563.563.563h.562v1.687c0 .31.252.563.563.563h5.624a.563.563 0 00.563-.563v-1.688h.563c.31 0 .562-.252.562-.562v-2.25a.563.563 0 00-.563-.563h-.562v-1.125h1.688c.31 0 .562-.252.562-.562v-2.25a.563.563 0 00-.563-.563h-1.687v-6.75c0-1.24 1.01-2.25 2.25-2.25s2.25 1.01 2.25 2.25v7.876c0 4.962 4.038 9 9 9s9-4.038 9-9v-6.75h1.688c.31 0 .562-.253.562-.563v-2.25a.563.563 0 00-.563-.563zM27 1.688h4.5v1.125H27V1.687zm-1.125 2.25h6.75v1.124h-6.75V3.938zM27 6.188h4.5v1.125H27V6.188zM9 25.313H4.5v-1.125H9v1.125zm1.125-2.25h-6.75v-1.125h6.75v1.125zM9 20.813H4.5v-1.125H9v1.125zm2.25-2.25h-9v-1.125h9v1.125zm20.25-1.125c0 4.342-3.532 7.875-7.875 7.875s-7.875-3.533-7.875-7.875V9.563a3.378 3.378 0 00-3.375-3.376A3.378 3.378 0 009 9.563v6.75H4.5v-6.75c0-4.342 3.533-7.874 7.875-7.874 4.343 0 7.875 3.532 7.875 7.875v7.874a3.378 3.378 0 003.375 3.375A3.378 3.378 0 0027 17.438v-6.75h4.5v6.75zm2.25-7.875h-9V8.437h9v1.126z" fill="url(#paint0_linear)"/><path d="M7.218 27.813c-.209-.313-.727-.313-.936 0l-1.683 2.525a3.933 3.933 0 00-.662 2.19c0 1.489 1.115 2.76 2.539 2.897a2.825 2.825 0 002.167-.718c.584-.533.92-1.291.92-2.082v-.103c0-.78-.23-1.535-.662-2.184l-1.683-2.525zm1.22 4.812c0 .474-.202.93-.553 1.25a1.666 1.666 0 01-1.302.43c-.853-.082-1.52-.862-1.52-1.783 0-.557.163-1.096.472-1.56L6.75 29.14l1.215 1.822c.309.463.473 1.003.473 1.56v.103z" fill="url(#paint1_linear)"/><defs><linearGradient id="paint0_linear" x1="34.875" y1="13.5" x2="1.125" y2="13.5" gradientUnits="userSpaceOnUse"><stop stop-color="#2063B1"/><stop offset="1" stop-color="#3CBAFC"/></linearGradient><linearGradient id="paint1_linear" x1="9.563" y1="31.508" x2="3.938" y2="31.508" gradientUnits="userSpaceOnUse"><stop stop-color="#2063B1"/><stop offset="1" stop-color="#3CBAFC"/></linearGradient></defs></svg>