<svg width="41" height="27" viewBox="0 0 41 27" fill="none" xmlns="http://www.w3.org/2000/svg"><path d="M14.053.28C5.413 5.608.373 12.808.373 19c0 4.176 2.88 7.344 6.48 7.344 3.6 0 6.337-2.592 6.337-6.048 0-3.024-2.448-5.328-5.184-5.328-1.585 0-3.025.576-4.033 1.584 1.44-5.04 5.329-9.504 11.808-13.68L14.053.28zm18.72 14.688c-1.584 0-3.024.576-4.032 1.584 1.44-5.04 5.328-9.504 11.809-13.68L38.822.28c-8.64 5.328-13.68 12.528-13.68 18.72 0 4.176 2.88 7.344 6.48 7.344 3.6 0 6.336-2.592 6.336-6.048 0-3.024-2.448-5.328-5.184-5.328z" fill="#236BB8"/></svg>