<svg width="30" height="30" viewBox="0 0 30 30" fill="none" xmlns="http://www.w3.org/2000/svg"><path d="M1.045 9.069c.577 0 1.045-.468 1.045-1.045V3.57l6.729 6.728a1.042 1.042 0 001.477 0 1.044 1.044 0 000-1.477l-6.73-6.728h4.457a1.045 1.045 0 000-2.09H1.045A1.044 1.044 0 000 1.047v6.977C0 8.601.468 9.07 1.045 9.07zm27.91 11.863c-.577 0-1.045.468-1.045 1.045v4.455l-6.936-6.936a1.045 1.045 0 10-1.478 1.477l6.936 6.936h-4.454a1.045 1.045 0 100 2.09h6.977c.577 0 1.045-.468 1.045-1.045v-6.977c0-.577-.468-1.045-1.045-1.045zM9.026 19.495L2.09 26.433v-4.455a1.045 1.045 0 10-2.09 0v6.977C0 29.531.468 30 1.045 30h6.977a1.045 1.045 0 000-2.09H3.568l6.936-6.936a1.045 1.045 0 10-1.478-1.477zM28.955 0h-6.977a1.045 1.045 0 100 2.09h4.455l-6.729 6.728a1.045 1.045 0 101.478 1.478l6.729-6.729v4.455a1.045 1.045 0 102.09 0V1.045A1.048 1.048 0 0028.954 0z" fill="#fff"/></svg>