<svg width="53" height="53" viewBox="0 0 53 53" fill="none" xmlns="http://www.w3.org/2000/svg"><g clip-path="url(#clip0)"><path d="M40.872 40.513c-.65 0-1.178.528-1.178 1.178v3.299a1.178 1.178 0 002.356 0v-3.3c0-.65-.527-1.178-1.178-1.178z" fill="url(#paint0_linear)"/><path d="M40.872 46.874c-.65 0-1.178.528-1.178 1.178v3.77a1.178 1.178 0 002.356 0v-3.77c0-.65-.527-1.178-1.178-1.178z" fill="url(#paint1_linear)"/><path d="M40.872 36.39c-.65 0-1.178.528-1.178 1.178v1.178a1.178 1.178 0 002.356 0v-1.178c0-.65-.527-1.178-1.178-1.178z" fill="url(#paint2_linear)"/><path d="M44.995 36.39c-.65 0-1.178.528-1.178 1.178v1.178a1.178 1.178 0 002.356 0v-1.178c0-.65-.528-1.178-1.178-1.178z" fill="url(#paint3_linear)"/><path d="M44.995 40.748c-.65 0-1.178.528-1.178 1.179v1.178a1.178 1.178 0 002.356 0v-1.178c0-.65-.528-1.178-1.178-1.178z" fill="url(#paint4_linear)"/><path d="M44.995 45.225c-.65 0-1.178.528-1.178 1.178v1.178a1.178 1.178 0 002.356 0v-1.178c0-.65-.528-1.178-1.178-1.178z" fill="url(#paint5_linear)"/><path d="M44.995 49.466c-.65 0-1.178.527-1.178 1.178v1.178a1.178 1.178 0 002.356 0v-1.178c0-.65-.528-1.178-1.178-1.178z" fill="url(#paint6_linear)"/><path d="M36.867 36.39c-.651 0-1.178.528-1.178 1.178v1.178a1.178 1.178 0 002.355 0v-1.178c0-.65-.527-1.178-1.177-1.178z" fill="url(#paint7_linear)"/><path d="M36.867 40.748c-.651 0-1.178.528-1.178 1.179v1.178a1.178 1.178 0 002.355 0v-1.178c0-.65-.527-1.178-1.177-1.178z" fill="url(#paint8_linear)"/><path d="M36.867 45.225c-.651 0-1.178.528-1.178 1.178v1.178a1.178 1.178 0 002.355 0v-1.178c0-.65-.527-1.178-1.177-1.178z" fill="url(#paint9_linear)"/><path d="M36.867 49.466c-.651 0-1.178.527-1.178 1.178v1.178a1.178 1.178 0 002.355 0v-1.178c0-.65-.527-1.178-1.177-1.178z" fill="url(#paint10_linear)"/><path d="M46.21 28.968h-.626v-9.474c0-1.625-.834-3.878-1.87-5.13l-.665-.762c-1.083-1.308-3.272-2.304-4.97-2.304h-8.634v-1.101c0-1.494-1.245-2.669-2.74-2.669H24.38V4.465h4.353a1.178 1.178 0 000-2.356H24.38v-.931a1.178 1.178 0 00-2.356 0v.931h-4.407a1.178 1.178 0 000 2.356h4.407v3.063h-2.38a2.658 2.658 0 00-2.686 2.669v1.1H8.501c-2.013 0-3.677 1.582-3.677 3.595v2.94c0 2.013 1.664 3.597 3.677 3.597h8.457v.588c0 1.494 1.192 2.71 2.686 2.71h7.062c1.494 0 2.739-1.216 2.739-2.71v-.588h5.89v7.54h-.557c-1.104 0-2.035.895-2.035 2v2.17c0 1.104.931 1.955 2.035 1.955H46.21c1.105 0 1.966-.85 1.966-1.955v-2.17c0-1.105-.861-2-1.965-2zM8.502 19.073c-.714 0-1.32-.527-1.32-1.242v-2.938c0-.715.606-1.24 1.32-1.24h8.457v5.42H8.5zm18.588 2.945a.353.353 0 01-.353.353h-7.069a.353.353 0 01-.353-.353v-11.78c0-.196.158-.354.353-.354h7.069c.195 0 .353.158.353.354v11.78zm18.73 10.72H35.1v-1.414h.55c1.143 0 2.042-.703 2.042-1.633V21.13c0-1.104-.937-2.057-2.041-2.057h-6.205v-5.42h8.634c1.005 0 2.503.677 3.143 1.451l.677.776c.696.841 1.33 2.523 1.33 3.614v10.563c0 .015-.022.029-.021.043 0 .015-.014.03-.014.045 0 .65.517 1.18 1.167 1.18h1.459v1.413z" fill="url(#paint11_linear)"/></g><defs><linearGradient id="paint0_linear" x1="42.05" y1="43.34" x2="39.694" y2="43.34" gradientUnits="userSpaceOnUse"><stop stop-color="#2063B1"/><stop offset="1" stop-color="#3CBAFC"/></linearGradient><linearGradient id="paint1_linear" x1="42.05" y1="49.937" x2="39.694" y2="49.937" gradientUnits="userSpaceOnUse"><stop stop-color="#2063B1"/><stop offset="1" stop-color="#3CBAFC"/></linearGradient><linearGradient id="paint2_linear" x1="42.05" y1="38.157" x2="39.694" y2="38.157" gradientUnits="userSpaceOnUse"><stop stop-color="#2063B1"/><stop offset="1" stop-color="#3CBAFC"/></linearGradient><linearGradient id="paint3_linear" x1="46.173" y1="38.157" x2="43.817" y2="38.157" gradientUnits="userSpaceOnUse"><stop stop-color="#2063B1"/><stop offset="1" stop-color="#3CBAFC"/></linearGradient><linearGradient id="paint4_linear" x1="46.173" y1="42.516" x2="43.817" y2="42.516" gradientUnits="userSpaceOnUse"><stop stop-color="#2063B1"/><stop offset="1" stop-color="#3CBAFC"/></linearGradient><linearGradient id="paint5_linear" x1="46.173" y1="46.992" x2="43.817" y2="46.992" gradientUnits="userSpaceOnUse"><stop stop-color="#2063B1"/><stop offset="1" stop-color="#3CBAFC"/></linearGradient><linearGradient id="paint6_linear" x1="46.173" y1="51.233" x2="43.817" y2="51.233" gradientUnits="userSpaceOnUse"><stop stop-color="#2063B1"/><stop offset="1" stop-color="#3CBAFC"/></linearGradient><linearGradient id="paint7_linear" x1="38.044" y1="38.157" x2="35.688" y2="38.157" gradientUnits="userSpaceOnUse"><stop stop-color="#2063B1"/><stop offset="1" stop-color="#3CBAFC"/></linearGradient><linearGradient id="paint8_linear" x1="38.044" y1="42.516" x2="35.688" y2="42.516" gradientUnits="userSpaceOnUse"><stop stop-color="#2063B1"/><stop offset="1" stop-color="#3CBAFC"/></linearGradient><linearGradient id="paint9_linear" x1="38.044" y1="46.992" x2="35.688" y2="46.992" gradientUnits="userSpaceOnUse"><stop stop-color="#2063B1"/><stop offset="1" stop-color="#3CBAFC"/></linearGradient><linearGradient id="paint10_linear" x1="38.044" y1="51.233" x2="35.688" y2="51.233" gradientUnits="userSpaceOnUse"><stop stop-color="#2063B1"/><stop offset="1" stop-color="#3CBAFC"/></linearGradient><linearGradient id="paint11_linear" x1="48.176" y1="17.547" x2="4.824" y2="17.547" gradientUnits="userSpaceOnUse"><stop stop-color="#2063B1"/><stop offset="1" stop-color="#3CBAFC"/></linearGradient><clipPath id="clip0"><path fill="#fff" d="M0 0h53v53H0z"/></clipPath></defs></svg>