<svg width="36" height="36" viewBox="0 0 36 36" fill="none" xmlns="http://www.w3.org/2000/svg"><g clip-path="url(#clip0)"><path d="M25.54 13.27l-.006-.009-6.947-8.944a.703.703 0 00-.553-.272h-.002c-.216 0-.42.1-.553.27l-6.977 8.897a.7.7 0 00-.036.05 9.716 9.716 0 00-2.167 6.11c0 5.35 4.352 9.702 9.701 9.702 5.35 0 9.7-4.352 9.7-9.701a9.72 9.72 0 00-2.16-6.103zM18 27.668c-4.574 0-8.295-3.721-8.295-8.295a8.31 8.31 0 011.897-5.28.696.696 0 00.055-.075l6.372-8.127 6.378 8.212a8.31 8.31 0 011.888 5.27c0 4.574-3.721 8.295-8.295 8.295z" fill="url(#paint0_linear)"/><path d="M24.326 19.988a.703.703 0 00-.846.523 5.446 5.446 0 01-3.224 3.776.703.703 0 10.535 1.3 6.855 6.855 0 004.058-4.754.703.703 0 00-.523-.845z" fill="url(#paint1_linear)"/><path d="M24.328 17.136a.703.703 0 00-.703.703v.014a.703.703 0 001.406 0v-.014a.703.703 0 00-.703-.703z" fill="url(#paint2_linear)"/><path d="M26.628 2.316L25.645.614a.703.703 0 00-1.282.55 18.006 18.006 0 00-10.565-.66A17.986 17.986 0 003.333 7.576 17.99 17.99 0 00.078 19.634a.703.703 0 101.4-.129C.728 11.365 6.165 3.784 14.127 1.87a16.598 16.598 0 0110.37.864l-.532.307a.703.703 0 10.704 1.218l1.701-.983a.703.703 0 00.258-.96z" fill="url(#paint3_linear)"/><path d="M35.84 15.619a.703.703 0 10-1.394.187c1.088 8.102-4.03 15.903-11.906 18.145-3.372.96-6.87.84-10.147-.34l.665-.421a.703.703 0 00-.753-1.188l-1.66 1.052a.703.703 0 00-.217.97l1.042 1.646a.702.702 0 001.292-.455c1.704.522 3.456.785 5.215.785 1.654 0 3.315-.232 4.948-.697a17.985 17.985 0 0010.163-7.502 17.99 17.99 0 002.752-12.182z" fill="url(#paint4_linear)"/><path d="M9.506 26.367l-.002-.004-3.583-4.712a.703.703 0 00-.558-.277h-.001a.703.703 0 00-.558.275l-3.598 4.687a5.517 5.517 0 00-1.204 3.445c0 3.001 2.397 5.443 5.343 5.443s5.343-2.442 5.343-5.443a5.52 5.52 0 00-1.182-3.414zm-4.16 7.45c-2.172 0-3.938-1.81-3.938-4.036 0-.939.321-1.853.905-2.575a.69.69 0 00.043-.059l3.003-3.912 3.013 3.963.022.03c.573.717.888 1.624.888 2.553 0 2.226-1.766 4.037-3.937 4.037z" fill="url(#paint5_linear)"/><path d="M7.665 29.078a.703.703 0 00-.703.703c0 .92-.725 1.667-1.617 1.667a.703.703 0 000 1.406c1.667 0 3.023-1.378 3.023-3.073a.703.703 0 00-.703-.703z" fill="url(#paint6_linear)"/><path d="M34.816 4.993l-.002-.004L31.23.278A.703.703 0 0030.673 0h-.001a.703.703 0 00-.558.275l-3.598 4.687a5.517 5.517 0 00-1.204 3.445c0 3.001 2.397 5.443 5.343 5.443s5.343-2.442 5.343-5.443a5.52 5.52 0 00-1.182-3.414zm-4.16 7.451c-2.172 0-3.938-1.81-3.938-4.037 0-.939.322-1.853.905-2.575a.706.706 0 00.043-.058l3.003-3.913 3.013 3.964.022.028c.573.718.888 1.625.888 2.554 0 2.226-1.766 4.037-3.937 4.037z" fill="url(#paint7_linear)"/><path d="M32.975 7.704a.703.703 0 00-.703.703c0 .92-.725 1.667-1.617 1.667a.703.703 0 000 1.406c1.667 0 3.023-1.378 3.023-3.073a.703.703 0 00-.703-.703z" fill="url(#paint8_linear)"/></g><defs><linearGradient id="paint0_linear" x1="27.701" y1="16.559" x2="8.299" y2="16.559" gradientUnits="userSpaceOnUse"><stop stop-color="#2063B1"/><stop offset="1" stop-color="#3CBAFC"/></linearGradient><linearGradient id="paint1_linear" x1="24.867" y1="22.805" x2="19.82" y2="22.805" gradientUnits="userSpaceOnUse"><stop stop-color="#2063B1"/><stop offset="1" stop-color="#3CBAFC"/></linearGradient><linearGradient id="paint2_linear" x1="25.031" y1="17.846" x2="23.625" y2="17.846" gradientUnits="userSpaceOnUse"><stop stop-color="#2063B1"/><stop offset="1" stop-color="#3CBAFC"/></linearGradient><linearGradient id="paint3_linear" x1="26.722" y1="10.139" x2=".002" y2="10.139" gradientUnits="userSpaceOnUse"><stop stop-color="#2063B1"/><stop offset="1" stop-color="#3CBAFC"/></linearGradient><linearGradient id="paint4_linear" x1="35.998" y1="25.505" x2="10.319" y2="25.505" gradientUnits="userSpaceOnUse"><stop stop-color="#2063B1"/><stop offset="1" stop-color="#3CBAFC"/></linearGradient><linearGradient id="paint5_linear" x1="10.688" y1="28.299" x2=".002" y2="28.299" gradientUnits="userSpaceOnUse"><stop stop-color="#2063B1"/><stop offset="1" stop-color="#3CBAFC"/></linearGradient><linearGradient id="paint6_linear" x1="8.368" y1="30.966" x2="4.642" y2="30.966" gradientUnits="userSpaceOnUse"><stop stop-color="#2063B1"/><stop offset="1" stop-color="#3CBAFC"/></linearGradient><linearGradient id="paint7_linear" x1="35.998" y1="6.925" x2="25.312" y2="6.925" gradientUnits="userSpaceOnUse"><stop stop-color="#2063B1"/><stop offset="1" stop-color="#3CBAFC"/></linearGradient><linearGradient id="paint8_linear" x1="33.678" y1="9.592" x2="29.952" y2="9.592" gradientUnits="userSpaceOnUse"><stop stop-color="#2063B1"/><stop offset="1" stop-color="#3CBAFC"/></linearGradient><clipPath id="clip0"><path fill="#fff" d="M0 0h36v36H0z"/></clipPath></defs></svg>