<svg width="36" height="36" viewBox="0 0 36 36" fill="none" xmlns="http://www.w3.org/2000/svg"><g clip-path="url(#clip0)"><path d="M11.393 25.197c5.806 0 9.003-3.41 9.003-9.602C20.396 9.797 12.189.579 11.84.19a.62.62 0 00-.893 0c-.35.39-8.556 9.607-8.556 15.405 0 6.192 3.197 9.602 9.002 9.602zm0-23.69c1.719 2.016 7.802 9.479 7.802 14.088 0 3.833-1.353 8.402-7.802 8.402-6.448 0-7.802-4.57-7.802-8.402 0-4.609 6.084-12.072 7.802-14.088z" fill="url(#paint0_linear)"/><path d="M28.198 26.398c3.433 0 5.401-2.291 5.401-6.287 0-3.751-4.76-8.908-4.962-9.126a.618.618 0 00-.878 0c-.203.218-4.963 5.375-4.963 9.126 0 3.996 1.969 6.287 5.402 6.287zm0-14.098c1.157 1.346 4.2 5.142 4.2 7.811 0 3.375-1.412 5.086-4.2 5.086-2.788 0-4.201-1.71-4.201-5.086 0-2.669 3.043-6.465 4.2-7.811z" fill="url(#paint1_linear)"/><path d="M19.346 24.2c-.153.173-3.751 4.283-3.751 6.999 0 3.051 1.531 4.801 4.2 4.801 2.67 0 4.202-1.75 4.202-4.801 0-2.716-3.598-6.826-3.751-7a.62.62 0 00-.9 0zm.45 10.6c-1.99 0-3.001-1.212-3.001-3.601 0-1.632 1.878-4.287 3-5.67 1.124 1.38 3.002 4.036 3.002 5.67 0 2.39-1.01 3.6-3.001 3.6z" fill="url(#paint2_linear)"/><path d="M10.133 22.794a.602.602 0 00.66-.568.6.6 0 00-.54-.627 4.397 4.397 0 01-3.206-1.637c-1.596-2.081-1.068-5.436-1.063-5.47a.6.6 0 00-1.183-.197c-.027.159-.622 3.893 1.29 6.392a5.547 5.547 0 004.042 2.107z" fill="url(#paint3_linear)"/><path d="M27.598 23.997a4.18 4.18 0 002.935-1.265c.669-.86.91-1.976.657-3.035a.6.6 0 00-1.183.198 2.462 2.462 0 01-.386 2.056 2.987 2.987 0 01-2.023.846.6.6 0 000 1.2z" fill="url(#paint4_linear)"/><path d="M19.464 32.462a.689.689 0 01-.331-.995.6.6 0 00-1.075-.537 1.89 1.89 0 00.87 2.61.6.6 0 10.536-1.075v-.003z" fill="url(#paint5_linear)"/></g><defs><linearGradient id="paint0_linear" x1="20.396" y1="12.599" x2="2.391" y2="12.599" gradientUnits="userSpaceOnUse"><stop stop-color="#2063B1"/><stop offset="1" stop-color="#3CBAFC"/></linearGradient><linearGradient id="paint1_linear" x1="33.599" y1="18.6" x2="22.796" y2="18.6" gradientUnits="userSpaceOnUse"><stop stop-color="#2063B1"/><stop offset="1" stop-color="#3CBAFC"/></linearGradient><linearGradient id="paint2_linear" x1="23.997" y1="30.003" x2="15.595" y2="30.003" gradientUnits="userSpaceOnUse"><stop stop-color="#2063B1"/><stop offset="1" stop-color="#3CBAFC"/></linearGradient><linearGradient id="paint3_linear" x1="10.794" y1="18.304" x2="4.692" y2="18.304" gradientUnits="userSpaceOnUse"><stop stop-color="#2063B1"/><stop offset="1" stop-color="#3CBAFC"/></linearGradient><linearGradient id="paint4_linear" x1="31.288" y1="21.603" x2="26.998" y2="21.603" gradientUnits="userSpaceOnUse"><stop stop-color="#2063B1"/><stop offset="1" stop-color="#3CBAFC"/></linearGradient><linearGradient id="paint5_linear" x1="19.796" y1="32.1" x2="17.832" y2="32.1" gradientUnits="userSpaceOnUse"><stop stop-color="#2063B1"/><stop offset="1" stop-color="#3CBAFC"/></linearGradient><clipPath id="clip0"><path fill="#fff" d="M0 0h36v36H0z"/></clipPath></defs></svg>