<svg width="42" height="42" viewBox="0 0 42 42" fill="none" xmlns="http://www.w3.org/2000/svg"><g clip-path="url(#clip0)"><path d="M37.411 5.577a4.6 4.6 0 00-4.593 4.592v13.792h-1.314a.656.656 0 00-.656.657v3.93c0 .363.293.657.656.657h1.312v.657a.656.656 0 100 1.313v1.312c0 .363.294.657.657.657h.223a2.621 2.621 0 01-2.527 1.966H3.932a2.626 2.626 0 01-2.622-2.623c0-.004-.003-.008-.003-.013V11.482c0-.856.553-1.578 1.317-1.849v2.502l-.002.007c0 .181.074.346.193.464.119.12.283.193.465.193l.006-.001h.65V29.2a3.94 3.94 0 003.938 3.937 3.94 3.94 0 003.937-3.936V12.796h.658V29.2a3.94 3.94 0 003.937 3.936 3.94 3.94 0 003.936-3.936V12.797H21v16.404a3.94 3.94 0 003.937 3.936 3.94 3.94 0 003.938-3.936V12.797h.647l.007.002a.654.654 0 00.463-.193.653.653 0 00.194-.465l-.001-.007.001-4.588a1.971 1.971 0 00-1.969-1.969H4.592a1.971 1.971 0 00-1.968 1.969v.721a3.287 3.287 0 00-2.63 3.215v21.005c0 .006.004.011.004.017a3.94 3.94 0 003.934 3.918h27.225l.007.002a3.94 3.94 0 003.878-3.28h.4a.656.656 0 00.656-.657v-1.312a.656.656 0 000-1.313v-.657h1.969a.656.656 0 00.656-.656v-6.563a.656.656 0 10-1.312 0v1.975h-1.313V10.17a1.312 1.312 0 012.624 0v3.941c0 .363.293.656.656.656h1.969a.656.656 0 00.656-.656v-3.934l.002-.006a4.599 4.599 0 00-4.594-4.594zM10.5 29.201a2.627 2.627 0 01-2.625 2.623 2.627 2.627 0 01-2.625-2.623V15.42h5.25V29.2zm0-15.094H5.25v-1.31h3.93l.006.002.007-.002h1.306v1.31zm-3.29-2.622l.004-.66H8.53v.66H7.21zM19.03 29.2a2.627 2.627 0 01-2.624 2.623 2.627 2.627 0 01-2.625-2.623V15.42h5.249V29.2zm0-15.094h-5.25v-1.31h3.934l.006.002.007-.002h1.302v1.31zm-3.285-2.622l.004-.66h1.316v.66h-1.32zM27.562 29.2a2.627 2.627 0 01-2.625 2.623 2.627 2.627 0 01-2.625-2.623V15.42h5.25V29.2zm0-15.094h-5.25v-1.31h3.938l.006.002.007-.002h1.3v1.31zm-3.282-2.622l.004-.66H25.6v.66h-1.32zM3.936 7.545c0-.361.294-.655.656-.655h23.625c.363 0 .657.294.657.656l-.002 3.939h-1.96V10.17a.656.656 0 00-.656-.657h-2.625a.656.656 0 00-.254.052c-.058.024-.105.063-.152.102-.018.014-.04.022-.056.037-.039.039-.063.088-.091.134-.015.026-.04.047-.05.074-.017.04-.017.084-.027.126-.009.043-.026.082-.026.128l-.007 1.319h-4.59V10.17a.656.656 0 00-.657-.657h-2.625a.656.656 0 00-.254.052c-.058.024-.105.063-.153.102-.017.014-.04.022-.055.037-.04.039-.063.088-.092.134-.015.026-.038.047-.05.074-.016.04-.017.084-.026.126-.009.043-.026.082-.026.128l-.007 1.319h-4.59V10.17a.656.656 0 00-.657-.657H6.561a.656.656 0 00-.255.052.623.623 0 00-.152.102c-.017.014-.04.022-.056.037-.038.039-.063.088-.09.134-.016.026-.04.047-.05.074-.017.04-.018.084-.027.126-.01.043-.026.082-.026.128l-.007 1.319H3.936v-3.94zm30.85 24.286h-.334l-.007-.001-.006.001h-.31v-.656h.657v.656zm0-1.969h-.657v-.657h.657v.657zm2.625-4.588v2.618h-5.25v-2.618h5.25zm3.28-11.82h-.656v-.658h.656v.659zm0-3.284v1.313h-.656V10.17a2.627 2.627 0 00-2.625-2.624 2.627 2.627 0 00-2.624 2.624v13.79h-.656V10.17a3.285 3.285 0 013.281-3.281 3.285 3.285 0 013.281 3.276v.004z" fill="url(#paint0_linear)"/><path d="M6.561 21.984h2.625a.656.656 0 100-1.312H6.561a.656.656 0 100 1.312z" fill="url(#paint1_linear)"/><path d="M8.53 22.642H7.218a.656.656 0 100 1.312H8.53a.656.656 0 100-1.312z" fill="url(#paint2_linear)"/><path d="M15.094 21.984h2.625a.656.656 0 100-1.312h-2.625a.656.656 0 100 1.312z" fill="url(#paint3_linear)"/><path d="M17.063 22.642H15.75a.656.656 0 100 1.312h1.313a.656.656 0 100-1.312z" fill="url(#paint4_linear)"/><path d="M23.625 21.984h2.625a.656.656 0 100-1.312h-2.625a.656.656 0 100 1.312z" fill="url(#paint5_linear)"/><path d="M25.594 22.642H24.28a.656.656 0 100 1.312h1.313a.656.656 0 100-1.312z" fill="url(#paint6_linear)"/></g><defs><linearGradient id="paint0_linear" x1="42.005" y1="21" x2="-.005" y2="21" gradientUnits="userSpaceOnUse"><stop stop-color="#2063B1"/><stop offset="1" stop-color="#3CBAFC"/></linearGradient><linearGradient id="paint1_linear" x1="9.843" y1="21.328" x2="5.905" y2="21.328" gradientUnits="userSpaceOnUse"><stop stop-color="#2063B1"/><stop offset="1" stop-color="#3CBAFC"/></linearGradient><linearGradient id="paint2_linear" x1="9.186" y1="23.298" x2="6.561" y2="23.298" gradientUnits="userSpaceOnUse"><stop stop-color="#2063B1"/><stop offset="1" stop-color="#3CBAFC"/></linearGradient><linearGradient id="paint3_linear" x1="18.375" y1="21.328" x2="14.438" y2="21.328" gradientUnits="userSpaceOnUse"><stop stop-color="#2063B1"/><stop offset="1" stop-color="#3CBAFC"/></linearGradient><linearGradient id="paint4_linear" x1="17.719" y1="23.298" x2="15.094" y2="23.298" gradientUnits="userSpaceOnUse"><stop stop-color="#2063B1"/><stop offset="1" stop-color="#3CBAFC"/></linearGradient><linearGradient id="paint5_linear" x1="26.906" y1="21.328" x2="22.969" y2="21.328" gradientUnits="userSpaceOnUse"><stop stop-color="#2063B1"/><stop offset="1" stop-color="#3CBAFC"/></linearGradient><linearGradient id="paint6_linear" x1="26.25" y1="23.298" x2="23.625" y2="23.298" gradientUnits="userSpaceOnUse"><stop stop-color="#2063B1"/><stop offset="1" stop-color="#3CBAFC"/></linearGradient><clipPath id="clip0"><path fill="#fff" d="M0 0h42v42H0z"/></clipPath></defs></svg>