<?xml version="1.0" encoding="utf-8"?>
<!-- Generator: Adobe Illustrator 21.1.0, SVG Export Plug-In . SVG Version: 6.00 Build 0)  -->
<svg version="1.1" id="Слой_1" xmlns="http://www.w3.org/2000/svg" xmlns:xlink="http://www.w3.org/1999/xlink" x="0px" y="0px"
	 viewBox="0 0 17 17" style="enable-background:new 0 0 17 17;" xml:space="preserve">
<style type="text/css">
	.st0{fill:#CBCBCB;}
</style>
<path class="st0" d="M8.5,17C3.8,17,0,13.2,0,8.5C0,3.8,3.8,0,8.5,0C13.2,0,17,3.8,17,8.5C17,13.2,13.2,17,8.5,17z M8.5,1
	C4.4,1,1,4.4,1,8.5S4.4,16,8.5,16S16,12.6,16,8.5S12.6,1,8.5,1z"/>
<path class="st0" d="M8.5,5.7c0.4,0,0.8-0.3,0.8-0.8C9.3,4.4,9,4,8.5,4C8,4,7.7,4.4,7.7,4.8C7.7,5.3,8,5.7,8.5,5.7z M9.1,6.6H7.9V13
	h1.2V6.6z"/>
</svg>
