<svg width="12" height="18" viewBox="0 0 12 18" fill="none" xmlns="http://www.w3.org/2000/svg">
<path d="M5.98599 0C3.06651 0 0.691406 2.37511 0.691406 5.29459V12.7054C0.691406 15.6249 3.06651 18 5.98599 18C8.90547 18 11.2806 15.6249 11.2806 12.7054V5.29459C11.2806 2.37511 8.90547 0 5.98599 0ZM10.2006 12.7054C10.2006 15.0293 8.30988 16.92 5.98599 16.92C3.66211 16.92 1.77136 15.0293 1.77136 12.7054V5.29459C1.77136 2.9707 3.66211 1.07996 5.98599 1.07996C8.30988 1.07996 10.2006 2.9707 10.2006 5.29459V12.7054Z" fill="#B2ADAD"/>
<path d="M5.98602 3.58072C5.68774 3.58072 5.44604 3.82242 5.44604 4.1207V6.60608C5.44604 6.90422 5.68774 7.14606 5.98602 7.14606C6.28417 7.14606 6.526 6.90422 6.526 6.60608V4.1207C6.526 3.82242 6.2843 3.58072 5.98602 3.58072Z" fill="#B2ADAD"/>
</svg>
